# xmcd
#
# Track frame offsets: 
#        150
#        14302
#        28435
#
# Disc length: 567 seconds
#
# Revision: 1
# Processed by: cddbd v1.5.2PL0 Copyright (c) Steve Scherf et al.
# Submitted via: ExactAudioCopy v0.99pb5
#
DISCID=1f023503
DTITLE=Lloyd Banks - On Fire
DYEAR=2004
DGENRE=Rap
TTITLE0=On Fire (Clean Version)
TTITLE1=On Fire (Album Version)
TTITLE2=On Fire (Instrumental)
EXTD=
EXTT0=
EXTT1=
EXTT2=
PLAYORDER=
